<svg fill="none" height="16" viewBox="0 0 16 16" width="16" xmlns="http://www.w3.org/2000/svg"><path d="m15.7247 5.02046.0008.00846.0013.00839c.0136.08481.0892.64922-.1327 1.58837v.00008c-.3195 1.35408-1.0579 2.58817-2.1391 3.56834-.0002.0002-.0005.0004-.0007.0007l-5.50055 4.907-5.40759-4.9072-.00014-.0002c-1.08153-.97993-1.8202-2.21455-2.139754-3.56865l-.00001-.00005c-.221928-.93963-.146242-1.50387-.132555-1.58805l.001419-.00872.000799-.00881c.223972-2.46841 1.958461-4.20823 4.080811-4.20823 1.3984 0 2.65094.74776 3.38344 2.00118l.21348.36531.21699-.36324c.73823-1.23581 2.04736-2.002943 3.47296-2.002943 2.1227 0 3.8569 1.739803 4.0811 4.208263z" fill="#fff" stroke="#000" stroke-width=".5"/></svg>